<svg width="400" height="400" viewBox="0 0 400 400" fill="none" xmlns="http://www.w3.org/2000/svg">
  <!-- Sacred Geometry Pattern -->
  <defs>
    <pattern id="sacred" x="0" y="0" width="100" height="100" patternUnits="userSpaceOnUse">
      <!-- Flower of Life pattern -->
      <circle cx="50" cy="50" r="25" fill="none" stroke="#667eea" stroke-width="2" opacity="0.3"/>
      <circle cx="25" cy="50" r="25" fill="none" stroke="#667eea" stroke-width="2" opacity="0.3"/>
      <circle cx="75" cy="50" r="25" fill="none" stroke="#667eea" stroke-width="2" opacity="0.3"/>
      <circle cx="50" cy="25" r="25" fill="none" stroke="#667eea" stroke-width="2" opacity="0.3"/>
      <circle cx="50" cy="75" r="25" fill="none" stroke="#667eea" stroke-width="2" opacity="0.3"/>
      <circle cx="25" cy="25" r="25" fill="none" stroke="#667eea" stroke-width="2" opacity="0.3"/>
      <circle cx="75" cy="75" r="25" fill="none" stroke="#667eea" stroke-width="2" opacity="0.3"/>
      <circle cx="25" cy="75" r="25" fill="none" stroke="#667eea" stroke-width="2" opacity="0.3"/>
      <circle cx="75" cy="25" r="25" fill="none" stroke="#667eea" stroke-width="2" opacity="0.3"/>
    </pattern>
  </defs>
  
  <!-- Background -->
  <rect width="400" height="400" fill="url(#sacred)"/>
  
  <!-- Central mandala -->
  <circle cx="200" cy="200" r="80" fill="none" stroke="#764ba2" stroke-width="3" opacity="0.5"/>
  <circle cx="200" cy="200" r="60" fill="none" stroke="#764ba2" stroke-width="2" opacity="0.4"/>
  <circle cx="200" cy="200" r="40" fill="none" stroke="#764ba2" stroke-width="1" opacity="0.3"/>
  
  <!-- Decorative elements -->
  <g transform="rotate(0 200 200)">
    <path d="M200 120L220 180L200 200L180 180Z" fill="#667eea" opacity="0.2"/>
    <path d="M200 280L220 220L200 200L180 220Z" fill="#667eea" opacity="0.2"/>
    <path d="M120 200L180 220L200 200L180 180Z" fill="#667eea" opacity="0.2"/>
    <path d="M280 200L220 180L200 200L220 220Z" fill="#667eea" opacity="0.2"/>
  </g>
</svg> 