
<svg width="800" height="600" xmlns="http://www.w3.org/2000/svg">
  <defs>
    <radialGradient id="starGlow" cx="50%" cy="50%" r="50%" fx="50%" fy="50%">
      <stop offset="0%" stop-color="white" stop-opacity="0.8"/>
      <stop offset="100%" stop-color="white" stop-opacity="0"/>
    </radialGradient>
  </defs>
  
  <rect width="100%" height="100%" fill="#0F172A"/>
  
  <!-- Stars -->
  <g fill="url(#starGlow)">
    <circle cx="123" cy="56" r="1"/>
    <circle cx="245" cy="112" r="1.5"/>
    <circle cx="387" cy="89" r="1"/>
    <circle cx="512" cy="142" r="2"/>
    <circle cx="634" cy="78" r="1"/>
    <circle cx="720" cy="134" r="1.5"/>
    <circle cx="87" cy="219" r="1.2"/>
    <circle cx="178" cy="267" r="1"/>
    <circle cx="298" cy="231" r="1.8"/>
    <circle cx="432" cy="287" r="1"/>
    <circle cx="567" cy="243" r="1.3"/>
    <circle cx="654" cy="298" r="1"/>
    <circle cx="732" cy="255" r="1.5"/>
    <circle cx="56" cy="345" r="1"/>
    <circle cx="143" cy="398" r="2"/>
    <circle cx="278" cy="367" r="1"/>
    <circle cx="387" cy="412" r="1.5"/>
    <circle cx="489" cy="378" r="1"/>
    <circle cx="598" cy="423" r="1.8"/>
    <circle cx="701" cy="389" r="1"/>
    <circle cx="121" cy="498" r="1.2"/>
    <circle cx="234" cy="521" r="1"/>
    <circle cx="345" cy="487" r="1.5"/>
    <circle cx="456" cy="532" r="1"/>
    <circle cx="578" cy="498" r="1.8"/>
    <circle cx="677" cy="543" r="1"/>
    <circle cx="745" cy="512" r="1.3"/>
  </g>
  
  <!-- Nebula effect -->
  <circle cx="200" cy="150" r="100" fill="#8257E620" opacity="0.3"/>
  <circle cx="600" cy="400" r="150" fill="#9D74C720" opacity="0.3"/>
  <circle cx="400" cy="300" r="120" fill="#6E59A520" opacity="0.2"/>
</svg>
