<svg width="32" height="32" viewBox="0 0 32 32" fill="none" xmlns="http://www.w3.org/2000/svg">
  <!-- Hand palm -->
  <path d="M16 8C16 8 14 6 12 8C10 10 12 12 14 14C16 16 18 14 20 12C22 10 20 8 18 6C16 4 16 8 16 8Z" fill="#FFB6C1"/>
  <path d="M16 16C16 16 14 14 12 16C10 18 12 20 14 22C16 24 18 22 20 20C22 18 20 16 18 14C16 12 16 16 16 16Z" fill="#FFB6C1"/>
  <path d="M16 24C16 24 14 22 12 24C10 26 12 28 14 30C16 32 18 30 20 28C22 26 20 24 18 22C16 20 16 24 16 24Z" fill="#FFB6C1"/>
  
  <!-- Palm lines -->
  <path d="M14 10L18 10" stroke="#8B4513" stroke-width="1" stroke-linecap="round"/>
  <path d="M13 14L19 14" stroke="#8B4513" stroke-width="1" stroke-linecap="round"/>
  <path d="M12 18L20 18" stroke="#8B4513" stroke-width="1" stroke-linecap="round"/>
  
  <!-- Life line curve -->
  <path d="M10 8Q8 12 10 16Q12 20 14 24" stroke="#8B4513" stroke-width="1.5" fill="none" stroke-linecap="round"/>
</svg> 